<svg width="84" height="99" viewBox="0 0 84 99" fill="none" xmlns="http://www.w3.org/2000/svg">
<path d="M29.3344 3.47825C28.9112 2.77299 28.1491 2.34146 27.3266 2.34146H4.69024C2.87024 2.34146 1.74607 4.32695 2.68246 5.8876L27.9702 48.0339C28.3934 48.7392 29.1556 49.1707 29.978 49.1707H52.6144C54.4344 49.1707 55.5586 47.1852 54.6222 45.6246L29.3344 3.47825Z" fill="#C52229"/>
<path fill-rule="evenodd" clip-rule="evenodd" d="M27.3265 0H4.69013C1.05012 0 -1.19821 3.97099 0.674557 7.09227L25.9623 49.2386C26.8087 50.6491 28.333 51.5122 29.9779 51.5122H52.6143C56.2543 51.5122 58.5026 47.5412 56.6299 44.4199L31.3421 2.27358C30.4958 0.863061 28.9714 0 27.3265 0ZM27.3265 2.34146C28.149 2.34146 28.9111 2.77299 29.3343 3.47825L54.6221 45.6246C55.5585 47.1852 54.4343 49.1707 52.6143 49.1707H29.9779C29.1555 49.1707 28.3933 48.7392 27.9701 48.0339L2.68234 5.8876C1.74596 4.32696 2.87012 2.34146 4.69013 2.34146H27.3265Z" fill="#9B0F15"/>
<path d="M53.7262 3.47825C54.1493 2.77299 54.9115 2.34146 55.7339 2.34146H78.3703C80.1903 2.34146 81.3145 4.32695 80.3781 5.8876L55.0903 48.0339C54.6671 48.7392 53.905 49.1707 53.0825 49.1707H30.4462C28.6261 49.1707 27.502 47.1852 28.4384 45.6246L53.7262 3.47825Z" fill="#F1333B"/>
<path fill-rule="evenodd" clip-rule="evenodd" d="M55.7341 0H78.3704C82.0104 0 84.2588 3.97099 82.386 7.09227L57.0982 49.2386C56.2519 50.6491 54.7276 51.5122 53.0826 51.5122H30.4463C26.8062 51.5122 24.5579 47.5412 26.4307 44.4199L51.7185 2.27358C52.5648 0.863061 54.0891 0 55.7341 0ZM55.7341 2.34146C54.9116 2.34146 54.1494 2.77299 53.7263 3.47825L28.4385 45.6246C27.5021 47.1852 28.6263 49.1707 30.4463 49.1707H53.0826C53.9051 49.1707 54.6673 48.7392 55.0904 48.0339L80.3782 5.8876C81.3146 4.32696 80.1904 2.34146 78.3704 2.34146H55.7341Z" fill="#9B0F15"/>
<path fill-rule="evenodd" clip-rule="evenodd" d="M56.167 3.67048C56.7261 3.99515 56.9162 4.71163 56.5915 5.27078L46.0549 23.4171C45.7303 23.9763 45.0138 24.1664 44.4546 23.8417C43.8955 23.517 43.7054 22.8005 44.0301 22.2414L54.5667 4.09505C54.8913 3.5359 55.6078 3.34581 56.167 3.67048Z" fill="#FE666D"/>
<path fill-rule="evenodd" clip-rule="evenodd" d="M4.6497 3.67048C4.09055 3.99515 3.90046 4.71163 4.22513 5.27078L14.7617 23.4171C15.0864 23.9763 15.8029 24.1664 16.362 23.8417C16.9212 23.517 17.1112 22.8005 16.7866 22.2414L6.25 4.09505C5.92533 3.5359 5.20885 3.34581 4.6497 3.67048Z" fill="#DF3840"/>
<path d="M26.8961 6.18293C26.8961 7.01136 26.2409 7.68293 25.4327 7.68293C24.6244 7.68293 23.9692 7.01136 23.9692 6.18293C23.9692 5.3545 24.6244 4.68293 25.4327 4.68293C26.2409 4.68293 26.8961 5.3545 26.8961 6.18293Z" fill="#AA161D"/>
<path d="M21.7564 6.54878C21.7564 7.57926 20.9414 8.41464 19.9361 8.41464C18.9307 8.41464 18.1157 7.57926 18.1157 6.54878C18.1157 5.5183 18.9307 4.68293 19.9361 4.68293C20.9414 4.68293 21.7564 5.5183 21.7564 6.54878Z" fill="#AA161D"/>
<path d="M26.3109 11.8902C26.3109 12.9207 25.4959 13.7561 24.4905 13.7561C23.4852 13.7561 22.6702 12.9207 22.6702 11.8902C22.6702 10.8598 23.4852 10.0244 24.4905 10.0244C25.4959 10.0244 26.3109 10.8598 26.3109 11.8902Z" fill="#AA161D"/>
<path d="M30.4727 9.34756C30.4727 9.8628 30.0652 10.2805 29.5625 10.2805C29.0598 10.2805 28.6523 9.8628 28.6523 9.34756C28.6523 8.83232 29.0598 8.41463 29.5625 8.41463C30.0652 8.41463 30.4727 8.83232 30.4727 9.34756Z" fill="#AA161D"/>
<path d="M20.8462 10.9573C20.8462 11.4726 20.4387 11.8902 19.9361 11.8902C19.4334 11.8902 19.0259 11.4726 19.0259 10.9573C19.0259 10.4421 19.4334 10.0244 19.9361 10.0244C20.4387 10.0244 20.8462 10.4421 20.8462 10.9573Z" fill="#AA161D"/>
<path d="M15.7742 5.25C15.7742 5.76525 15.3667 6.18293 14.864 6.18293C14.3614 6.18293 13.9539 5.76525 13.9539 5.25C13.9539 4.73476 14.3614 4.31708 14.864 4.31708C15.3667 4.31708 15.7742 4.73476 15.7742 5.25Z" fill="#AA161D"/>
<path d="M29.5625 15.8598C29.5625 16.375 29.155 16.7927 28.6524 16.7927C28.1497 16.7927 27.7422 16.375 27.7422 15.8598C27.7422 15.3445 28.1497 14.9268 28.6524 14.9268C29.155 14.9268 29.5625 15.3445 29.5625 15.8598Z" fill="#AA161D"/>
<path d="M24.8794 16.7927C24.8794 17.3079 24.4719 17.7256 23.9693 17.7256C23.4666 17.7256 23.0591 17.3079 23.0591 16.7927C23.0591 16.2774 23.4666 15.8598 23.9693 15.8598C24.4719 15.8598 24.8794 16.2774 24.8794 16.7927Z" fill="#AA161D"/>
<path d="M33.9562 13.4085C33.9562 14.2471 33.293 14.9268 32.4749 14.9268C31.6568 14.9268 30.9937 14.2471 30.9937 13.4085C30.9937 12.57 31.6568 11.8902 32.4749 11.8902C33.293 11.8902 33.9562 12.57 33.9562 13.4085Z" fill="#AA161D"/>
<path d="M35.8872 17.7256C35.8872 18.2408 35.4797 18.6585 34.9771 18.6585C34.4744 18.6585 34.0669 18.2408 34.0669 17.7256C34.0669 17.2104 34.4744 16.7927 34.9771 16.7927C35.4797 16.7927 35.8872 17.2104 35.8872 17.7256Z" fill="#AA161D"/>
<path d="M73.1399 64.3902C73.1399 81.8478 58.9877 95.9999 41.5301 95.9999C24.0726 95.9999 9.92041 81.8478 9.92041 64.3902C9.92041 46.9326 24.0726 32.7805 41.5301 32.7805C58.9877 32.7805 73.1399 46.9326 73.1399 64.3902Z" fill="#DCA16A"/>
<path fill-rule="evenodd" clip-rule="evenodd" d="M75.4813 64.3902C75.4813 83.1409 60.2808 98.3414 41.5301 98.3414C22.7793 98.3414 7.57886 83.1409 7.57886 64.3902C7.57886 45.6395 22.7793 30.439 41.5301 30.439C60.2808 30.439 75.4813 45.6395 75.4813 64.3902ZM41.5301 95.9999C58.9876 95.9999 73.1398 81.8478 73.1398 64.3902C73.1398 46.9326 58.9876 32.7805 41.5301 32.7805C24.0725 32.7805 9.92032 46.9326 9.92032 64.3902C9.92032 81.8478 24.0725 95.9999 41.5301 95.9999Z" fill="#C38144"/>
<path fill-rule="evenodd" clip-rule="evenodd" d="M12.2619 65.5609C11.6153 65.5609 11.0912 65.0368 11.0912 64.3902C11.0912 47.5792 24.7192 33.9512 41.5302 33.9512C42.1768 33.9512 42.7009 34.4754 42.7009 35.1219C42.7009 35.7685 42.1768 36.2927 41.5302 36.2927C26.0124 36.2927 13.4327 48.8724 13.4327 64.3902C13.4327 65.0368 12.9085 65.5609 12.2619 65.5609Z" fill="#F0B57F"/>
<path fill-rule="evenodd" clip-rule="evenodd" d="M70.7984 63.2195C71.445 63.2195 71.9691 63.7436 71.9691 64.3902C71.9691 81.2012 58.3411 94.8292 41.5301 94.8292C40.8835 94.8292 40.3594 94.3051 40.3594 93.6585C40.3594 93.0119 40.8835 92.4878 41.5301 92.4878C57.048 92.4878 69.6277 79.9081 69.6277 64.3902C69.6277 63.7436 70.1518 63.2195 70.7984 63.2195Z" fill="#CF945D"/>
<path d="M64.9447 64.3902C64.9447 77.3217 54.4616 87.8048 41.5301 87.8048C28.5986 87.8048 18.1155 77.3217 18.1155 64.3902C18.1155 51.4587 28.5986 40.9756 41.5301 40.9756C54.4616 40.9756 64.9447 51.4587 64.9447 64.3902Z" fill="#F7BA82"/>
<path fill-rule="evenodd" clip-rule="evenodd" d="M67.2863 64.3902C67.2863 78.6149 55.7549 90.1463 41.5303 90.1463C27.3056 90.1463 15.7742 78.6149 15.7742 64.3902C15.7742 50.1655 27.3056 38.6341 41.5303 38.6341C55.7549 38.6341 67.2863 50.1655 67.2863 64.3902ZM41.5303 87.8048C54.4618 87.8048 64.9449 77.3217 64.9449 64.3902C64.9449 51.4587 54.4618 40.9756 41.5303 40.9756C28.5987 40.9756 18.1156 51.4587 18.1156 64.3902C18.1156 77.3217 28.5987 87.8048 41.5303 87.8048Z" fill="#C38144"/>
<path fill-rule="evenodd" clip-rule="evenodd" d="M41.53 84.2926C52.5218 84.2926 61.4325 75.382 61.4325 64.3902C61.4325 63.7436 61.9566 63.2195 62.6032 63.2195C63.2498 63.2195 63.7739 63.7436 63.7739 64.3902C63.7739 76.6752 53.815 86.6341 41.53 86.6341C40.8835 86.6341 40.3593 86.1099 40.3593 85.4634C40.3593 84.8168 40.8835 84.2926 41.53 84.2926Z" fill="#E6A66C"/>
<path fill-rule="evenodd" clip-rule="evenodd" d="M41.5303 44.4878C30.5385 44.4878 21.6278 53.3984 21.6278 64.3902C21.6278 65.0368 21.1037 65.5609 20.4571 65.5609C19.8105 65.5609 19.2864 65.0368 19.2864 64.3902C19.2864 52.1052 29.2453 42.1463 41.5303 42.1463C42.1768 42.1463 42.701 42.6705 42.701 43.317C42.701 43.9636 42.1768 44.4878 41.5303 44.4878Z" fill="#FFD5AE"/>
<path d="M38.5195 61.836H40.7888C41.8694 61.836 42.67 61.5658 43.1907 61.0255C43.7114 60.4852 43.9717 59.7681 43.9717 58.8741C43.9717 58.0096 43.7114 57.3367 43.1907 56.8553C42.6799 56.3739 41.9725 56.1333 41.0687 56.1333C40.2534 56.1333 39.5706 56.3592 39.0205 56.8111C38.4703 57.2532 38.1953 57.8328 38.1953 58.5499H33.9366C33.9366 57.43 34.2363 56.428 34.8355 55.5438C35.4446 54.6499 36.2894 53.9524 37.3701 53.4513C38.4605 52.9503 39.659 52.6998 40.9656 52.6998C43.2349 52.6998 45.013 53.245 46.2999 54.3355C47.5869 55.4161 48.2303 56.9093 48.2303 58.8152C48.2303 59.7975 47.9307 60.7013 47.3314 61.5265C46.7322 62.3517 45.9463 62.9854 44.9737 63.4275C46.1821 63.8597 47.0809 64.5081 47.6704 65.3726C48.2696 66.2371 48.5692 67.2588 48.5692 68.4376C48.5692 70.3434 47.8718 71.8711 46.4768 73.0204C45.0916 74.1698 43.2545 74.7445 40.9656 74.7445C38.824 74.7445 37.0704 74.1797 35.7049 73.0499C34.3492 71.9202 33.6714 70.4269 33.6714 68.5702H37.93C37.93 69.3758 38.2297 70.034 38.8289 70.5448C39.438 71.0557 40.1846 71.3111 41.0687 71.3111C42.0806 71.3111 42.8714 71.0458 43.4412 70.5154C44.0208 69.975 44.3106 69.2628 44.3106 68.3787C44.3106 66.2371 43.1317 65.1663 40.774 65.1663H38.5195V61.836Z" fill="#FFD5AE"/>
<path fill-rule="evenodd" clip-rule="evenodd" d="M36.125 61.0648H33.9366C32.5477 61.0648 31.4217 59.9389 31.4217 58.5499C31.4217 56.9527 31.8581 55.4543 32.7537 54.1328L32.7572 54.1278C33.6474 52.8212 34.8624 51.8419 36.3122 51.1697L36.3201 51.1661C37.7683 50.5007 39.3292 50.1849 40.9656 50.1849C43.6216 50.1849 46.0448 50.8251 47.9215 52.4132C49.8548 54.0388 50.7452 56.2799 50.7452 58.8152C50.7452 60.3497 50.2649 61.767 49.3664 63.0043C49.3082 63.0844 49.2489 63.1632 49.1883 63.2407C49.3862 63.4618 49.5714 63.6972 49.7427 63.9476C50.6645 65.2811 51.0842 66.8142 51.0842 68.4376C51.0842 71.0463 50.0872 73.3025 48.0796 74.9584C46.1323 76.5728 43.6767 77.2594 40.9656 77.2594C38.3655 77.2594 36.0071 76.5639 34.1018 74.9876L34.0949 74.9819C32.1324 73.3465 31.1565 71.1287 31.1565 68.5702C31.1565 67.1813 32.2825 66.0553 33.6714 66.0553H36.1662C36.0617 65.7789 36.0046 65.4793 36.0046 65.1663V61.836C36.0046 61.567 36.0468 61.3078 36.125 61.0648ZM40.2833 67.6812C40.3878 67.9576 40.4449 68.2572 40.4449 68.5702C40.4449 68.5912 40.4458 68.6073 40.4469 68.619C40.4489 68.6209 40.4512 68.6229 40.4537 68.6251C40.5584 68.7107 40.7148 68.7962 41.0688 68.7962C41.3588 68.7962 41.5316 68.7578 41.621 68.7278C41.6955 68.7028 41.72 68.6817 41.7264 68.6758M40.2833 67.6812H40.774C41.3991 67.6812 41.6538 67.7886 41.7233 67.8259C41.7249 67.8298 41.7267 67.8344 41.7286 67.8397C41.7522 67.9038 41.7957 68.0675 41.7957 68.3787C41.7957 68.544 41.7693 68.6147 41.7638 68.6281C41.7604 68.6364 41.7579 68.6405 41.7556 68.6439C41.7531 68.6474 41.7447 68.6586 41.7264 68.6758M46.4768 73.0204C47.8718 71.8711 48.5693 70.3434 48.5693 68.4376C48.5693 67.2588 48.2696 66.2371 47.6704 65.3726C47.5733 65.2303 47.4679 65.0938 47.3541 64.9632C46.7766 64.3005 45.9831 63.7885 44.9737 63.4275C45.8834 63.014 46.6297 62.4329 47.2128 61.6843C47.2531 61.6325 47.2927 61.5799 47.3315 61.5265C47.9307 60.7013 48.2303 59.7976 48.2303 58.8152C48.2303 56.9093 47.5869 55.4161 46.2999 54.3355C45.013 53.245 43.2349 52.6998 40.9656 52.6998C39.659 52.6998 38.4605 52.9503 37.3701 53.4513C36.2895 53.9524 35.4446 54.6499 34.8355 55.5438C34.7272 55.7037 34.6286 55.8674 34.5398 56.035C34.1377 56.7942 33.9366 57.6325 33.9366 58.5499H38.1953C38.1953 57.8328 38.4703 57.2532 39.0205 56.8111C39.5706 56.3592 40.2534 56.1333 41.0688 56.1333C41.9725 56.1333 42.6799 56.3739 43.1907 56.8553C43.7114 57.3367 43.9717 58.0096 43.9717 58.8741C43.9717 59.7681 43.7114 60.4852 43.1907 61.0255C42.67 61.5658 41.8694 61.836 40.7888 61.836H38.5195V65.1663H40.774C43.1318 65.1663 44.3106 66.2371 44.3106 68.3787C44.3106 69.2628 44.0208 69.9751 43.4412 70.5154C42.8714 71.0459 42.0806 71.3111 41.0688 71.3111C40.1846 71.3111 39.438 71.0557 38.8289 70.5448C38.2297 70.034 37.93 69.3758 37.93 68.5702H33.6714C33.6714 69.4996 33.8412 70.3379 34.1809 71.0851C34.5198 71.8307 35.0278 72.4857 35.7049 73.0499C37.0704 74.1797 38.824 74.7445 40.9656 74.7445C43.2546 74.7445 45.0916 74.1698 46.4768 73.0204ZM40.5897 59.3211C40.6532 59.124 40.6929 58.9163 40.7057 58.7013C40.7722 58.6739 40.8822 58.6482 41.0688 58.6482C41.2693 58.6482 41.3871 58.6715 41.4443 58.6876C41.4506 58.7271 41.4568 58.7877 41.4568 58.8741C41.4568 59.0777 41.4273 59.1836 41.4125 59.2243C41.409 59.2339 41.4058 59.2416 41.4027 59.2481C41.4005 59.2488 41.3981 59.2496 41.3957 59.2505C41.3151 59.2777 41.1281 59.3211 40.7888 59.3211H40.5897Z" fill="#C28044"/>
</svg>
