<svg width="89" height="101" viewBox="0 0 89 101" fill="none" xmlns="http://www.w3.org/2000/svg">
<path d="M31.1558 3.56521C30.7063 2.84231 29.8969 2.39999 29.0233 2.39999H4.98133C3.04831 2.39999 1.85434 4.43513 2.84886 6.03478L29.7069 49.2348C30.1564 49.9577 30.9658 50.4 31.8394 50.4H55.8814C57.8144 50.4 59.0084 48.3649 58.0138 46.7652L31.1558 3.56521Z" fill="#C52229"/>
<path fill-rule="evenodd" clip-rule="evenodd" d="M29.0233 0H4.98135C1.11531 0 -1.27263 4.07026 0.716427 7.26958L27.5745 50.4696C28.4733 51.9154 30.0923 52.8 31.8394 52.8H55.8814C59.7474 52.8 62.1354 48.7297 60.1463 45.5304L33.2883 2.33042C32.3894 0.884638 30.7704 0 29.0233 0ZM29.0233 2.4C29.8969 2.4 30.7064 2.84232 31.1558 3.56521L58.0139 46.7652C59.0084 48.3649 57.8144 50.4 55.8814 50.4H31.8394C30.9659 50.4 30.1564 49.9577 29.7069 49.2348L2.84889 6.03479C1.85436 4.43513 3.04833 2.4 4.98135 2.4H29.0233Z" fill="#9B0F15"/>
<path d="M57.0625 3.56521C57.5119 2.84231 58.3214 2.39999 59.1949 2.39999H83.2369C85.17 2.39999 86.3639 4.43513 85.3694 6.03478L58.5113 49.2348C58.0619 49.9577 57.2524 50.4 56.3789 50.4H32.3369C30.4039 50.4 29.2099 48.3649 30.2044 46.7652L57.0625 3.56521Z" fill="#F1333B"/>
<path fill-rule="evenodd" clip-rule="evenodd" d="M59.1949 0H83.2369C87.103 0 89.4909 4.07026 87.5018 7.26958L60.6438 50.4696C59.7449 51.9154 58.1259 52.8 56.3789 52.8H32.3369C28.4708 52.8 26.0829 48.7297 28.0719 45.5304L54.93 2.33042C55.8289 0.884638 57.4478 0 59.1949 0ZM59.1949 2.4C58.3214 2.4 57.5119 2.84232 57.0625 3.56521L30.2044 46.7652C29.2099 48.3649 30.4038 50.4 32.3369 50.4H56.3789C57.2524 50.4 58.0619 49.9577 58.5113 49.2348L85.3694 6.03479C86.3639 4.43513 85.1699 2.4 83.2369 2.4H59.1949Z" fill="#9B0F15"/>
<path fill-rule="evenodd" clip-rule="evenodd" d="M59.6546 3.76224C60.2484 4.09503 60.4503 4.82942 60.1055 5.40255L48.9146 24.0026C48.5698 24.5757 47.8088 24.7705 47.215 24.4377C46.6211 24.105 46.4192 23.3706 46.764 22.7974L57.9549 4.19743C58.2997 3.6243 59.0607 3.42946 59.6546 3.76224Z" fill="#FE666D"/>
<path fill-rule="evenodd" clip-rule="evenodd" d="M4.93845 3.76224C4.34458 4.09503 4.14269 4.82942 4.48752 5.40255L15.6784 24.0026C16.0232 24.5757 16.7842 24.7705 17.3781 24.4377C17.9719 24.105 18.1738 23.3706 17.829 22.7974L6.63813 4.19743C6.2933 3.6243 5.53233 3.42946 4.93845 3.76224Z" fill="#DF3840"/>
<path d="M28.5663 6.33749C28.5663 7.18663 27.8705 7.87499 27.012 7.87499C26.1536 7.87499 25.4578 7.18663 25.4578 6.33749C25.4578 5.48835 26.1536 4.79999 27.012 4.79999C27.8705 4.79999 28.5663 5.48835 28.5663 6.33749Z" fill="#AA161D"/>
<path d="M23.1072 6.71249C23.1072 7.76873 22.2416 8.62499 21.1739 8.62499C20.1061 8.62499 19.2405 7.76873 19.2405 6.71249C19.2405 5.65624 20.1061 4.79999 21.1739 4.79999C22.2416 4.79999 23.1072 5.65624 23.1072 6.71249Z" fill="#AA161D"/>
<path d="M27.9446 12.1875C27.9446 13.2437 27.079 14.1 26.0113 14.1C24.9435 14.1 24.0779 13.2437 24.0779 12.1875C24.0779 11.1312 24.9435 10.275 26.0113 10.275C27.079 10.275 27.9446 11.1312 27.9446 12.1875Z" fill="#AA161D"/>
<path d="M32.3648 9.58123C32.3648 10.1094 31.932 10.5375 31.3981 10.5375C30.8642 10.5375 30.4314 10.1094 30.4314 9.58123C30.4314 9.05311 30.8642 8.62498 31.3981 8.62498C31.932 8.62498 32.3648 9.05311 32.3648 9.58123Z" fill="#AA161D"/>
<path d="M22.1407 11.2312C22.1407 11.7594 21.7079 12.1875 21.174 12.1875C20.6401 12.1875 20.2073 11.7594 20.2073 11.2312C20.2073 10.7031 20.6401 10.275 21.174 10.275C21.7079 10.275 22.1407 10.7031 22.1407 11.2312Z" fill="#AA161D"/>
<path d="M16.7537 5.38124C16.7537 5.90936 16.3209 6.33749 15.787 6.33749C15.2531 6.33749 14.8203 5.90936 14.8203 5.38124C14.8203 4.85312 15.2531 4.42499 15.787 4.42499C16.3209 4.42499 16.7537 4.85312 16.7537 5.38124Z" fill="#AA161D"/>
<path d="M31.398 16.2562C31.398 16.7844 30.9652 17.2125 30.4313 17.2125C29.8974 17.2125 29.4646 16.7844 29.4646 16.2562C29.4646 15.7281 29.8974 15.3 30.4313 15.3C30.9652 15.3 31.398 15.7281 31.398 16.2562Z" fill="#AA161D"/>
<path d="M26.4243 17.2125C26.4243 17.7406 25.9915 18.1687 25.4577 18.1687C24.9238 18.1687 24.491 17.7406 24.491 17.2125C24.491 16.6844 24.9238 16.2562 25.4577 16.2562C25.9915 16.2562 26.4243 16.6844 26.4243 17.2125Z" fill="#AA161D"/>
<path d="M36.0647 13.7437C36.0647 14.6032 35.3603 15.3 34.4915 15.3C33.6226 15.3 32.9182 14.6032 32.9182 13.7437C32.9182 12.8842 33.6226 12.1875 34.4915 12.1875C35.3603 12.1875 36.0647 12.8842 36.0647 13.7437Z" fill="#AA161D"/>
<path d="M38.1158 18.1687C38.1158 18.6969 37.683 19.125 37.1491 19.125C36.6152 19.125 36.1824 18.6969 36.1824 18.1687C36.1824 17.6406 36.6152 17.2125 37.1491 17.2125C37.683 17.2125 38.1158 17.6406 38.1158 18.1687Z" fill="#AA161D"/>
<path d="M77.6815 66C77.6815 83.894 62.6506 98.4 44.1089 98.4C25.5673 98.4 10.5364 83.894 10.5364 66C10.5364 48.106 25.5673 33.6 44.1089 33.6C62.6506 33.6 77.6815 48.106 77.6815 66Z" fill="#BCCCD2"/>
<path fill-rule="evenodd" clip-rule="evenodd" d="M80.1684 66C80.1684 85.2195 64.0241 100.8 44.109 100.8C24.1939 100.8 8.04956 85.2195 8.04956 66C8.04956 46.7805 24.1939 31.2 44.109 31.2C64.0241 31.2 80.1684 46.7805 80.1684 66ZM44.109 98.4C62.6506 98.4 77.6816 83.894 77.6816 66C77.6816 48.106 62.6506 33.6 44.109 33.6C25.5674 33.6 10.5364 48.106 10.5364 66C10.5364 83.894 25.5674 98.4 44.109 98.4Z" fill="#81A5B0"/>
<path fill-rule="evenodd" clip-rule="evenodd" d="M13.0232 67.2C12.3364 67.2 11.7797 66.6627 11.7797 66C11.7797 48.7687 26.254 34.8 44.1089 34.8C44.7956 34.8 45.3523 35.3373 45.3523 36C45.3523 36.6627 44.7956 37.2 44.1089 37.2C27.6274 37.2 14.2666 50.0942 14.2666 66C14.2666 66.6627 13.7099 67.2 13.0232 67.2Z" fill="#D0DEE3"/>
<path fill-rule="evenodd" clip-rule="evenodd" d="M75.1946 64.8C75.8813 64.8 76.4381 65.3373 76.4381 66C76.4381 83.2313 61.9638 97.2 44.1089 97.2C43.4222 97.2 42.8655 96.6627 42.8655 96C42.8655 95.3373 43.4222 94.8 44.1089 94.8C60.5903 94.8 73.9512 81.9058 73.9512 66C73.9512 65.3373 74.5079 64.8 75.1946 64.8Z" fill="#A2B9C1"/>
<path d="M68.9776 66C68.9776 79.2548 57.8436 90 44.109 90C30.3745 90 19.2405 79.2548 19.2405 66C19.2405 52.7452 30.3745 42 44.109 42C57.8436 42 68.9776 52.7452 68.9776 66Z" fill="#C7D4D8"/>
<path fill-rule="evenodd" clip-rule="evenodd" d="M71.4643 66C71.4643 80.5803 59.2168 92.4 44.1088 92.4C29.0009 92.4 16.7534 80.5803 16.7534 66C16.7534 51.4197 29.0009 39.6 44.1088 39.6C59.2168 39.6 71.4643 51.4197 71.4643 66ZM44.1088 90C57.8434 90 68.9774 79.2548 68.9774 66C68.9774 52.7452 57.8434 42 44.1088 42C30.3743 42 19.2403 52.7452 19.2403 66C19.2403 79.2548 30.3743 90 44.1088 90Z" fill="#81A5B0"/>
<path fill-rule="evenodd" clip-rule="evenodd" d="M44.109 86.4C55.7833 86.4 65.2473 77.2666 65.2473 66C65.2473 65.3373 65.804 64.8 66.4907 64.8C67.1774 64.8 67.7341 65.3373 67.7341 66C67.7341 78.5921 57.1568 88.8 44.109 88.8C43.4223 88.8 42.8656 88.2627 42.8656 87.6C42.8656 86.9373 43.4223 86.4 44.109 86.4Z" fill="#B5C3C8"/>
<path fill-rule="evenodd" clip-rule="evenodd" d="M44.109 45.6C32.4347 45.6 22.9707 54.7334 22.9707 66C22.9707 66.6627 22.414 67.2 21.7273 67.2C21.0406 67.2 20.4839 66.6627 20.4839 66C20.4839 53.4079 31.0612 43.2 44.109 43.2C44.7958 43.2 45.3525 43.7373 45.3525 44.4C45.3525 45.0627 44.7958 45.6 44.109 45.6Z" fill="#D9EAEF"/>
<path fill-rule="evenodd" clip-rule="evenodd" d="M54.1002 75.9562C54.1002 77.2817 52.9868 78.3562 51.6133 78.3562H37.071C35.6976 78.3562 34.5842 77.2817 34.5842 75.9562V73.1719C34.5842 72.5618 34.8249 71.9746 35.2575 71.5297L42.1098 64.4815C42.9861 63.5563 43.5481 62.8349 43.8688 62.3033L43.8807 62.2838C44.1744 61.8073 44.2159 61.5256 44.2159 61.4015C44.2159 61.1451 44.1819 60.9951 44.1574 60.9215C44.1532 60.909 44.1492 60.8985 44.1457 60.89C44.106 60.8834 44.0422 60.8765 43.9488 60.8765C43.7628 60.8765 43.6848 60.9068 43.6692 60.9134C43.6594 60.9176 43.6527 60.9214 43.6455 60.9267C43.638 60.9322 43.6215 60.9454 43.5972 60.9733C43.5156 61.068 43.361 61.3062 43.361 61.9219C43.361 63.2473 42.2476 64.3219 40.8742 64.3219H36.6485C35.275 64.3219 34.1616 63.2473 34.1616 61.9219C34.1616 60.2779 34.5702 58.7244 35.4085 57.3119L35.4169 57.2977C36.2773 55.8706 37.4938 54.7566 39.0098 53.973C40.539 53.1732 42.2299 52.8 44.0216 52.8C46.5842 52.8 48.9366 53.3947 50.7366 54.9058C52.6009 56.4623 53.4153 58.6127 53.4153 61.0078C53.4153 62.4481 53.0259 63.8447 52.3368 65.1749C51.6473 66.5057 50.5453 67.9161 49.1515 69.3898C49.1409 69.4011 49.1301 69.4123 49.1192 69.4234L48.2777 70.2797H51.6133C52.9868 70.2797 54.1002 71.3542 54.1002 72.6797V75.9562ZM42.4916 72.6797L47.3148 67.7719C48.6359 66.375 49.5685 65.1515 50.1125 64.1015C50.6565 63.0515 50.9285 62.0203 50.9285 61.0078C50.9285 59.1609 50.3213 57.7312 49.107 56.7187C47.9025 55.7062 46.2073 55.2 44.0216 55.2C42.5936 55.2 41.3162 55.4953 40.1893 56.0859C39.0625 56.6672 38.1882 57.4734 37.5665 58.5047C37.3717 58.8328 37.208 59.1719 37.0752 59.5219C36.7907 60.2717 36.6485 61.0717 36.6485 61.9219H40.8742C40.8742 60.8906 41.1462 60.0609 41.6902 59.4328C42.2439 58.7953 42.9968 58.4765 43.9488 58.4765C44.8328 58.4765 45.5128 58.739 45.9888 59.264C46.4648 59.7797 46.7028 60.4922 46.7028 61.4015C46.7028 62.0672 46.4745 62.7703 46.0179 63.5109C45.571 64.2515 44.8765 65.1187 43.9342 66.1125L37.071 73.1719V75.9562H51.6133V72.6797H42.4916Z" fill="#81A5B0"/>
<path d="M51.6135 75.9562H37.0713V73.1719L43.9344 66.1125C44.8767 65.1187 45.5713 64.2515 46.0181 63.5109C46.4747 62.7703 46.703 62.0672 46.703 61.4015C46.703 60.4922 46.465 59.7797 45.989 59.264C45.513 58.739 44.833 58.4765 43.949 58.4765C42.997 58.4765 42.2441 58.7953 41.6904 59.4328C41.1464 60.0609 40.8744 60.8906 40.8744 61.9219H36.6487C36.6487 60.675 36.9547 59.5359 37.5667 58.5047C38.1884 57.4734 39.0627 56.6672 40.1895 56.0859C41.3164 55.4953 42.5938 55.2 44.0218 55.2C46.2075 55.2 47.9027 55.7062 49.1073 56.7187C50.3215 57.7312 50.9287 59.1609 50.9287 61.0078C50.9287 62.0203 50.6567 63.0515 50.1127 64.1015C49.5687 65.1515 48.6361 66.375 47.315 67.7719L42.4918 72.6797H51.6135V75.9562Z" fill="#D9EAEF"/>
</svg>
