<svg width="85" height="100" viewBox="0 0 85 100" fill="none" xmlns="http://www.w3.org/2000/svg">
<path d="M29.8193 3.53574C29.3891 2.81882 28.6144 2.38016 27.7783 2.38016H4.76776C2.91767 2.38016 1.77493 4.39847 2.72679 5.98491L28.4326 48.8279C28.8627 49.5448 29.6375 49.9835 30.4735 49.9835H53.4841C55.3342 49.9835 56.4769 47.9652 55.5251 46.3787L29.8193 3.53574Z" fill="#C52229"/>
<path fill-rule="evenodd" clip-rule="evenodd" d="M27.7782 0H4.76771C1.06753 0 -1.21797 4.03662 0.685759 7.2095L26.3915 50.0525C27.2518 51.4863 28.8014 52.3636 30.4735 52.3636H53.484C57.1842 52.3636 59.4697 48.327 57.566 45.1541L31.8602 2.31116C30.9999 0.877327 29.4504 0 27.7782 0ZM27.7782 2.38017C28.6143 2.38017 29.3891 2.81883 29.8192 3.53575L55.525 46.3787C56.4769 47.9652 55.3341 49.9835 53.484 49.9835H30.4735C29.6374 49.9835 28.8627 49.5448 28.4325 48.8279L2.72673 5.98492C1.77487 4.39848 2.91762 2.38017 4.76771 2.38017H27.7782Z" fill="#9B0F15"/>
<path d="M54.6143 3.53574C55.0445 2.81882 55.8192 2.38016 56.6553 2.38016H79.6658C81.5159 2.38016 82.6587 4.39847 81.7068 5.98491L56.001 48.8279C55.5709 49.5448 54.7961 49.9835 53.96 49.9835H30.9495C29.0994 49.9835 27.9567 47.9652 28.9085 46.3787L54.6143 3.53574Z" fill="#F1333B"/>
<path fill-rule="evenodd" clip-rule="evenodd" d="M56.6554 0H79.6659C83.3661 0 85.6516 4.03662 83.7478 7.2095L58.0421 50.0525C57.1817 51.4863 55.6322 52.3636 53.9601 52.3636H30.9496C27.2494 52.3636 24.9639 48.327 26.8676 45.1541L52.5734 2.31116C53.4337 0.877327 54.9832 0 56.6554 0ZM56.6554 2.38017C55.8193 2.38017 55.0445 2.81883 54.6144 3.53575L28.9086 46.3787C27.9567 47.9652 29.0995 49.9835 30.9496 49.9835H53.9601C54.7962 49.9835 55.5709 49.5448 56.0011 48.8279L81.7069 5.98492C82.6587 4.39848 81.516 2.38017 79.6659 2.38017H56.6554Z" fill="#9B0F15"/>
<path fill-rule="evenodd" clip-rule="evenodd" d="M57.0955 3.73115C57.6639 4.06118 57.8572 4.7895 57.5271 5.3579L46.8164 23.8042C46.4863 24.3726 45.758 24.5658 45.1896 24.2358C44.6212 23.9057 44.428 23.1774 44.758 22.609L55.4688 4.16273C55.7988 3.59434 56.5271 3.40111 57.0955 3.73115Z" fill="#FE666D"/>
<path fill-rule="evenodd" clip-rule="evenodd" d="M4.72674 3.73115C4.15834 4.06118 3.96511 4.7895 4.29515 5.3579L15.0059 23.8042C15.3359 24.3726 16.0643 24.5658 16.6326 24.2358C17.201 23.9057 17.3943 23.1774 17.0642 22.609L6.35349 4.16273C6.02345 3.59434 5.29513 3.40111 4.72674 3.73115Z" fill="#DF3840"/>
<path d="M27.3407 6.28511C27.3407 7.12723 26.6747 7.8099 25.8531 7.8099C25.0315 7.8099 24.3655 7.12723 24.3655 6.28511C24.3655 5.44299 25.0315 4.76031 25.8531 4.76031C26.6747 4.76031 27.3407 5.44299 27.3407 6.28511Z" fill="#AA161D"/>
<path d="M22.1159 6.65701C22.1159 7.70452 21.2874 8.5537 20.2655 8.5537C19.2435 8.5537 18.415 7.70452 18.415 6.65701C18.415 5.60949 19.2435 4.76031 20.2655 4.76031C21.2874 4.76031 22.1159 5.60949 22.1159 6.65701Z" fill="#AA161D"/>
<path d="M26.7458 12.0868C26.7458 13.1343 25.9173 13.9835 24.8954 13.9835C23.8734 13.9835 23.0449 13.1343 23.0449 12.0868C23.0449 11.0393 23.8734 10.1901 24.8954 10.1901C25.9173 10.1901 26.7458 11.0393 26.7458 12.0868Z" fill="#AA161D"/>
<path d="M30.9764 9.50206C30.9764 10.0258 30.5622 10.4504 30.0512 10.4504C29.5402 10.4504 29.126 10.0258 29.126 9.50206C29.126 8.9783 29.5402 8.55371 30.0512 8.55371C30.5622 8.55371 30.9764 8.9783 30.9764 9.50206Z" fill="#AA161D"/>
<path d="M21.1908 11.1384C21.1908 11.6622 20.7765 12.0868 20.2655 12.0868C19.7546 12.0868 19.3403 11.6622 19.3403 11.1384C19.3403 10.6147 19.7546 10.1901 20.2655 10.1901C20.7765 10.1901 21.1908 10.6147 21.1908 11.1384Z" fill="#AA161D"/>
<path d="M16.035 5.33677C16.035 5.86053 15.6208 6.28512 15.1098 6.28512C14.5988 6.28512 14.1846 5.86053 14.1846 5.33677C14.1846 4.81302 14.5988 4.38843 15.1098 4.38843C15.6208 4.38843 16.035 4.81302 16.035 5.33677Z" fill="#AA161D"/>
<path d="M30.0511 16.1219C30.0511 16.6457 29.6369 17.0702 29.1259 17.0702C28.6149 17.0702 28.2007 16.6457 28.2007 16.1219C28.2007 15.5981 28.6149 15.1736 29.1259 15.1736C29.6369 15.1736 30.0511 15.5981 30.0511 16.1219Z" fill="#AA161D"/>
<path d="M25.2909 17.0702C25.2909 17.594 24.8766 18.0186 24.3656 18.0186C23.8547 18.0186 23.4404 17.594 23.4404 17.0702C23.4404 16.5465 23.8547 16.1219 24.3656 16.1219C24.8766 16.1219 25.2909 16.5465 25.2909 17.0702Z" fill="#AA161D"/>
<path d="M34.5176 13.6302C34.5176 14.4825 33.8434 15.1735 33.0118 15.1735C32.1802 15.1735 31.5061 14.4825 31.5061 13.6302C31.5061 12.7778 32.1802 12.0868 33.0118 12.0868C33.8434 12.0868 34.5176 12.7778 34.5176 13.6302Z" fill="#AA161D"/>
<path d="M36.4806 18.0186C36.4806 18.5424 36.0663 18.9669 35.5553 18.9669C35.0444 18.9669 34.6301 18.5424 34.6301 18.0186C34.6301 17.4948 35.0444 17.0703 35.5553 17.0703C36.0663 17.0703 36.4806 17.4948 36.4806 18.0186Z" fill="#AA161D"/>
<path d="M74.3494 65.4547C74.3494 83.2009 59.9633 97.5869 42.2172 97.5869C24.4711 97.5869 10.085 83.2009 10.085 65.4547C10.085 47.7086 24.4711 33.3225 42.2172 33.3225C59.9633 33.3225 74.3494 47.7086 74.3494 65.4547Z" fill="#FFBB0D"/>
<path fill-rule="evenodd" clip-rule="evenodd" d="M76.7296 65.4547C76.7296 84.5154 61.2779 99.9671 42.2172 99.9671C23.1566 99.9671 7.70483 84.5154 7.70483 65.4547C7.70483 46.394 23.1566 30.9423 42.2172 30.9423C61.2779 30.9423 76.7296 46.394 76.7296 65.4547ZM42.2172 97.587C59.9634 97.587 74.3495 83.2009 74.3495 65.4547C74.3495 47.7086 59.9634 33.3225 42.2172 33.3225C24.4711 33.3225 10.085 47.7086 10.085 65.4547C10.085 83.2009 24.4711 97.587 42.2172 97.587Z" fill="#E89B05"/>
<path fill-rule="evenodd" clip-rule="evenodd" d="M12.4651 66.6448C11.8078 66.6448 11.275 66.112 11.275 65.4547C11.275 48.3658 25.1283 34.5126 42.2171 34.5126C42.8744 34.5126 43.4072 35.0454 43.4072 35.7027C43.4072 36.3599 42.8744 36.8927 42.2171 36.8927C26.4428 36.8927 13.6552 49.6804 13.6552 65.4547C13.6552 66.112 13.1223 66.6448 12.4651 66.6448Z" fill="#E8AA0A"/>
<path fill-rule="evenodd" clip-rule="evenodd" d="M71.9692 64.2646C72.6265 64.2646 73.1593 64.7975 73.1593 65.4547C73.1593 82.5436 59.3061 96.3969 42.2172 96.3969C41.5599 96.3969 41.0271 95.8641 41.0271 95.2068C41.0271 94.5495 41.5599 94.0167 42.2172 94.0167C57.9915 94.0167 70.7792 81.2291 70.7792 65.4547C70.7792 64.7975 71.312 64.2646 71.9692 64.2646Z" fill="#E8AA0A"/>
<path d="M66.0188 65.4547C66.0188 78.6 55.3625 89.2564 42.2172 89.2564C29.0719 89.2564 18.4155 78.6 18.4155 65.4547C18.4155 52.3094 29.0719 41.6531 42.2172 41.6531C55.3625 41.6531 66.0188 52.3094 66.0188 65.4547Z" fill="#FFDD28"/>
<path fill-rule="evenodd" clip-rule="evenodd" d="M68.399 65.4547C68.399 79.9145 56.677 91.6365 42.2172 91.6365C27.7574 91.6365 16.0354 79.9145 16.0354 65.4547C16.0354 50.9949 27.7574 39.2729 42.2172 39.2729C56.677 39.2729 68.399 50.9949 68.399 65.4547ZM42.2172 89.2564C55.3625 89.2564 66.0189 78.6 66.0189 65.4547C66.0189 52.3094 55.3625 41.6531 42.2172 41.6531C29.0719 41.6531 18.4156 52.3094 18.4156 65.4547C18.4156 78.6 29.0719 89.2564 42.2172 89.2564Z" fill="#E89B05"/>
<path fill-rule="evenodd" clip-rule="evenodd" d="M42.2173 85.6861C53.3908 85.6861 62.4487 76.6282 62.4487 65.4547C62.4487 64.7974 62.9815 64.2646 63.6388 64.2646C64.296 64.2646 64.8289 64.7974 64.8289 65.4547C64.8289 77.9427 54.7053 88.0663 42.2173 88.0663C41.56 88.0663 41.0272 87.5335 41.0272 86.8762C41.0272 86.2189 41.56 85.6861 42.2173 85.6861Z" fill="#ECC704"/>
<path fill-rule="evenodd" clip-rule="evenodd" d="M42.2173 45.2233C31.0438 45.2233 21.9859 54.2812 21.9859 65.4547C21.9859 66.112 21.4531 66.6448 20.7958 66.6448C20.1385 66.6448 19.6057 66.112 19.6057 65.4547C19.6057 52.9667 29.7293 42.8431 42.2173 42.8431C42.8745 42.8431 43.4074 43.376 43.4074 44.0332C43.4074 44.6905 42.8745 45.2233 42.2173 45.2233Z" fill="#FFEF9C"/>
<path d="M45.0575 75.7686H41.027V60.2325L36.2156 61.7247V58.4474L44.6252 55.435H45.0575V75.7686Z" fill="#FFEF9C"/>
<path fill-rule="evenodd" clip-rule="evenodd" d="M47.4377 75.7687C47.4377 77.0832 46.3721 78.1488 45.0576 78.1488H41.0271C39.7126 78.1488 38.6469 77.0832 38.6469 75.7687V63.4627L36.9207 63.9981C36.1983 64.2221 35.4125 64.0895 34.8037 63.6409C34.1949 63.1923 33.8354 62.481 33.8354 61.7247V58.4474C33.8354 57.4423 34.4668 56.5456 35.413 56.2066L43.8226 53.1942C44.0801 53.102 44.3516 53.0548 44.6252 53.0548H45.0576C46.3721 53.0548 47.4377 54.1204 47.4377 55.435V75.7687ZM41.0271 60.2325V75.7687H45.0576V55.435H44.6252L36.2156 58.4474V61.7247L41.0271 60.2325Z" fill="#E89B05"/>
</svg>
